<?xml version="1.0" encoding="UTF-8" standalone="no"?>
<svg
        xmlns:dc="http://purl.org/dc/elements/1.1/"
        xmlns:cc="http://creativecommons.org/ns#"
        xmlns:rdf="http://www.w3.org/1999/02/22-rdf-syntax-ns#"
        xmlns="http://www.w3.org/2000/svg"
        xmlns:sodipodi="http://sodipodi.sourceforge.net/DTD/sodipodi-0.dtd"
        xmlns:inkscape="http://www.inkscape.org/namespaces/inkscape"
        inkscape:version="1.0 (4035a4fb49, 2020-05-01)"
        sodipodi:docname="fantasmagoria_64px.svg"
        id="svg8"
        version="1.1"
        viewBox="0 0 63.999999 63.999999"
        height="64"
        width="64">
  <sodipodi:namedview
     inkscape:current-layer="svg8"
     inkscape:window-maximized="1"
     inkscape:window-y="0"
     inkscape:window-x="0"
     inkscape:cy="27.356139"
     inkscape:cx="15.802121"
     inkscape:zoom="9.1923882"
     showgrid="false"
     id="namedview8"
     inkscape:window-height="1007"
     inkscape:window-width="1920"
     inkscape:pageshadow="2"
     inkscape:pageopacity="0"
     guidetolerance="10"
     gridtolerance="10"
     objecttolerance="10"
     borderopacity="1"
     bordercolor="#666666"
     pagecolor="#ffffff" />
  <title
     id="title3810">Fantasmagoria</title>
  <defs
     id="defs2" />
  <metadata
     id="metadata5">
    <rdf:RDF>
      <cc:Work
         rdf:about="">
        <dc:format>image/svg+xml</dc:format>
        <dc:type
           rdf:resource="http://purl.org/dc/dcmitype/StillImage" />
        <dc:title>Fantasmagoria</dc:title>
      </cc:Work>
    </rdf:RDF>
  </metadata>
  <rect
     ry="6"
     rx="6"
     y="0"
     x="0"
     height="64"
     width="64"
     id="rect10"
     style="opacity:1;fill:#f2f2f2;fill-opacity:1;stroke:none;stroke-width:5;stroke-linejoin:round" />
  <g
     transform="matrix(0.93333412,0,0,0.93333329,2.0999932,2.1333335)"
     id="layer2">
    <path
       style="fill:#000000;fill-opacity:1;fill-rule:evenodd;stroke:#000000;stroke-width:0;stroke-linecap:square;stroke-linejoin:bevel;stroke-opacity:0"
       id="shape04"
       d="m 16.041869,61.979063 c 9.852263,0.02497 15.330337,0.03072 17.937656,0 -1.152983,-1.446752 -4.292146,-4.837567 -4.294616,-8.286918 V 35.319568 c 5.430375,0.408546 11.512403,4.174525 14.071557,5.972182 0.09282,-4.681264 -4.46287,-15.640562 -5.133097,-18.260117 l -1.07027,6.183711 C 35.097788,27.32462 31.229857,24.600463 30.22015,24.260441 l 0.03934,-9.7115 15.687127,0.891894 c 2.131996,0.829598 4.663336,5.448513 6.015225,7.075499 1.347747,-5.962507 2.14196,-13.439457 3.129904,-20.5163336 -9.782272,3.371153 -27.06573,5.0571682 -35.903555,2.5759426 L 9,15.621728 c 7.27005,-1.222514 12.469091,-2.090296 15.596887,-2.603315 l -5.810963,4.658584 0.250613,40.335652 z" />
  </g>
</svg>
