<?xml version="1.0" encoding="UTF-8" standalone="no"?>
<!-- Created with Inkscape (http://www.inkscape.org/) -->

<svg
        width="820"
        height="157"
        viewBox="0 0 820 157"
        version="1.1"
        id="svg5"
        inkscape:version="1.1.2 (0a00cf5339, 2022-02-04)"
        sodipodi:docname="konwent-fantastyki-fantasmagoria-mono.svg"
        xmlns:inkscape="http://www.inkscape.org/namespaces/inkscape"
        xmlns:sodipodi="http://sodipodi.sourceforge.net/DTD/sodipodi-0.dtd"
        xmlns="http://www.w3.org/2000/svg"
>
  <style
     id="style896" />
  <defs
     id="defs2" />
  <g
     inkscape:groupmode="layer"
     id="layer3"
     inkscape:label="logo"
     style="display:inline"
     sodipodi:insensitive="true">
    <g
       id="g964"
       transform="translate(0,-140)"
       sodipodi:insensitive="true">
      <path
         id="path15590"
         style="display:inline;fill:#9D2F00;fill-opacity:1;stroke:none;stroke-width:1px;stroke-linecap:butt;stroke-linejoin:miter;stroke-opacity:1"
         d="M 177.52734,160 140,225 h 16 L 162.5,213.74219 169,225 h 24.52734 v -65 z m 0,27.71289 V 210 h -12.86719 z"
         inkscape:label="A1"
         sodipodi:insensitive="true" />
      <path
         style="fill:#9D2F00;fill-opacity:1;stroke:none;stroke-width:1px;stroke-linecap:butt;stroke-linejoin:miter;stroke-opacity:1"
         d="m 253,160 v 65 h -16 v -6.11027 L 216,182.51666 V 225 h -16 v -65 h 19 l 18,31.17691 V 160 Z"
         id="path16183"
         inkscape:label="N"
         sodipodi:insensitive="true" />
      <path
         style="fill:#9D2F00;fill-opacity:1;stroke:none;stroke-width:1px;stroke-linecap:butt;stroke-linejoin:miter;stroke-opacity:1"
         d="m 259,160 h 66 l -8.66025,15 H 293 v 50 h -16 v -50 h -18 z"
         id="path16454"
         inkscape:label="T"
         sodipodi:insensitive="true" />
      <path
         id="path14295"
         style="display:inline;fill:#9D2F00;fill-opacity:1;stroke:none;stroke-width:1px;stroke-linecap:butt;stroke-linejoin:miter;stroke-opacity:1"
         d="M 332.52734,160 295,225 h 16 L 317.5,213.74219 324,225 h 24.52734 v -65 z m 0,27.71289 V 210 h -12.86719 z"
         inkscape:label="A2"
         sodipodi:insensitive="true" />
      <path
         id="path20729"
         style="fill:#9D2F00;fill-opacity:1;stroke:none;stroke-width:0.1;stroke-linecap:round;stroke-linejoin:round;stroke-miterlimit:4;stroke-dasharray:none;stroke-opacity:1"
         d="m 374,160 a 19,20 0 0 0 -16.45508,10 19,20 0 0 0 0,20 A 19,20 0 0 0 374,200 h 14.52734 a 4,5 0 0 1 4,5 4,5 0 0 1 -4,5 H 355 v 15 h 33.52734 a 19,20.5 0 0 0 19,-20.5 19,20.5 0 0 0 -19,-20.5 H 374 a 4,4.5 0 0 1 -4,-4.5 4,4.5 0 0 1 4,-4.5 h 24.86719 l 8.66015,-15 z"
         inkscape:label="S"
         sodipodi:insensitive="true" />
      <path
         style="fill:#9D2F00;fill-opacity:1;stroke:none;stroke-width:1px;stroke-linecap:butt;stroke-linejoin:miter;stroke-opacity:1"
         d="m 412,160 h 26.88022 L 452,200.37853 465.11978,160 H 491 v 65 H 475 V 178.83475 L 460,225 H 444 L 428,175.75706 V 225 h -16 z"
         id="path17463"
         inkscape:label="M"
         sodipodi:insensitive="true" />
      <path
         id="path15498"
         style="display:inline;fill:#9D2F00;fill-opacity:1;stroke:none;stroke-width:1px;stroke-linecap:butt;stroke-linejoin:miter;stroke-opacity:1"
         d="M 532.52734,160 495,225 h 16 L 517.5,213.74219 524,225 h 24.52734 v -65 z m 0,27.71289 V 210 h -12.86719 z"
         inkscape:label="A3"
         sodipodi:insensitive="true" />
      <path
         id="path19062"
         style="display:inline;fill:#9D2F00;fill-opacity:1;stroke:none;stroke-width:0.1;stroke-linecap:round;stroke-linejoin:round;stroke-miterlimit:4;stroke-dasharray:none;stroke-opacity:1"
         d="m 581.5,160 a 26.5,32.5 0 0 0 -22.94922,16.25 26.5,32.5 0 0 0 0,32.5 A 26.5,32.5 0 0 0 581.5,225 H 608 v -33 h -16 v 18 H 581.5 A 11.5,17.5 0 0 1 570,192.5 11.5,17.5 0 0 1 581.5,175 h 17.83984 L 608,160 Z"
         inkscape:label="G"
         sodipodi:insensitive="true" />
      <path
         id="path18603"
         style="fill:#9D2F00;fill-opacity:1;stroke:none;stroke-width:0.1;stroke-linecap:round;stroke-linejoin:round;stroke-miterlimit:4;stroke-dasharray:none;stroke-opacity:1"
         d="m 642,160 a 28,32.5 0 0 0 -28,32.5 28,32.5 0 0 0 28,32.5 28,32.5 0 0 0 28,-32.5 28,32.5 0 0 0 -28,-32.5 z m 0,15 a 13,17.5 0 0 1 13,17.5 13,17.5 0 0 1 -13,17.5 13,17.5 0 0 1 -13,-17.5 13,17.5 0 0 1 13,-17.5 z"
         inkscape:label="O"
         sodipodi:insensitive="true" />
      <path
         id="path20349"
         style="fill:#9D2F00;fill-opacity:1;stroke:none;stroke-width:0.1;stroke-linecap:round;stroke-linejoin:round;stroke-miterlimit:4;stroke-dasharray:none;stroke-opacity:1"
         d="m 676,160 v 65 h 16 V 192.9082 L 710.52734,225 h 16 l -12.67773,-21.95703 a 19,22.177786 0 0 0 12.67773,-20.86524 19,22.177786 0 0 0 -19,-22.17773 z m 16,15 h 15.52734 a 4,6.6777849 0 0 1 4,6.67773 4,6.6777849 0 0 1 -4,6.67774 H 692 Z"
         inkscape:label="R"
         sodipodi:insensitive="true" />
      <path
         style="fill:#9D2F00;fill-opacity:1;stroke:none;stroke-width:1px;stroke-linecap:butt;stroke-linejoin:miter;stroke-opacity:1"
         d="m 733,160 h 16 v 65 h -16 z"
         id="path18267"
         inkscape:label="I"
         sodipodi:insensitive="true" />
      <path
         id="path15664"
         style="display:inline;fill:#9D2F00;fill-opacity:1;stroke:none;stroke-width:1px;stroke-linecap:butt;stroke-linejoin:miter;stroke-opacity:1"
         d="m 772,160 37.52734,65 h -16 l -6.5,-11.25781 -6.5,11.25781 H 756 v -65 z m 0,27.71289 V 210 h 12.86719 z"
         inkscape:label="A4"
         sodipodi:insensitive="true" />
      <path
         id="path3790"
         style="display:inline;fill:#9D2F00;fill-opacity:1;stroke:none;stroke-width:1px;stroke-linecap:butt;stroke-linejoin:miter;stroke-opacity:1"
         inkscape:label="głowa"
         d="m 76,160 c -18.305129,0.0179 -35.527547,8.67617 -46.460938,23.35742 L 21,190 l 1,10 -5,13 v 13 l -8,18 c -1.5454074,3.47717 1.649443,2.88578 2.900391,3.94922 1.250948,1.06343 2.392837,1.66636 5.099609,3.05078 0,0 -1.362138,2.48058 -1,4 0.271116,1.13752 2.003786,1.67787 2.3125,2.58398 0.647387,1.90015 -0.587719,2.97456 0.206208,4.8183 C 19.015176,263.55522 21,265 21,265 v 5 l 5,7 32.197266,-16.67383 c 2.967045,-1.53652 11.469959,-6.5828 11.792968,-20.15625 C 71.948049,240.71076 73.96888,240.98988 76,241 c 9.993294,-0.0147 18.83357,-6.48076 21.875,-16 h 34.59766 l 17.28515,-29.94141 H 76 V 195 c -11.16161,7e-5 -20.712085,8.01384 -22.650391,19.00586 -0.6282,3.67545 -0.35338,7.44852 0.800782,10.99414 H 48.246094 C 47.243045,221.08576 47.078645,217.00371 47.763672,213.02148 50.180072,199.31865 62.085743,189.32849 76,189.32812 h 77.06836 L 170,160 Z m -40,59 -11,9 -5,-8 z"
         sodipodi:nodetypes="ccccccsscsssccccccccccccccccccccccc"
         sodipodi:insensitive="true" />
    </g>
  </g>
</svg>
